<svg xmlns="http://www.w3.org/2000/svg" viewBox="0 0 100 100">
  <defs>
    <linearGradient id="brainGradient" x1="0%" y1="0%" x2="100%" y2="100%">
      <stop offset="0%" style="stop-color:#06b6d4;stop-opacity:1" />
      <stop offset="100%" style="stop-color:#3b82f6;stop-opacity:1" />
    </linearGradient>
  </defs>
  
  <!-- Background Circle -->
  <circle cx="50" cy="50" r="48" fill="url(#brainGradient)" opacity="0.1"/>
  
  <!-- Brain Icon -->
  <path d="M 30 35 Q 25 30 25 25 Q 25 20 30 20 Q 35 20 38 25 Q 40 23 43 23 Q 48 23 50 28 Q 52 23 57 23 Q 60 23 62 25 Q 65 20 70 20 Q 75 20 75 25 Q 75 30 70 35 Q 72 38 72 42 Q 72 45 70 47 Q 73 50 73 55 Q 73 58 70 60 L 70 65 Q 70 70 65 72 Q 60 74 55 72 Q 53 75 50 75 Q 47 75 45 72 Q 40 74 35 72 Q 30 70 30 65 L 30 60 Q 27 58 27 55 Q 27 50 30 47 Q 28 45 28 42 Q 28 38 30 35 Z" 
        fill="url(#brainGradient)" 
        stroke="url(#brainGradient)" 
        stroke-width="2" 
        opacity="0.9"/>
  
  <!-- Brain Details -->
  <path d="M 35 30 Q 38 35 40 38" stroke="url(#brainGradient)" stroke-width="2" fill="none" opacity="0.6"/>
  <path d="M 65 30 Q 62 35 60 38" stroke="url(#brainGradient)" stroke-width="2" fill="none" opacity="0.6"/>
  <path d="M 45 45 Q 48 50 50 52" stroke="url(#brainGradient)" stroke-width="2" fill="none" opacity="0.6"/>
  <path d="M 55 45 Q 52 50 50 52" stroke="url(#brainGradient)" stroke-width="2" fill="none" opacity="0.6"/>
  <path d="M 35 55 Q 40 58 45 60" stroke="url(#brainGradient)" stroke-width="2" fill="none" opacity="0.6"/>
  <path d="M 65 55 Q 60 58 55 60" stroke="url(#brainGradient)" stroke-width="2" fill="none" opacity="0.6"/>
</svg>
